/* XPM */
static char *_57b9a6316eb48f6abac7e67d44ee6f0[] = {
/* columns rows colors chars-per-pixel */
"64 64 130 2 ",
"   c #423A2C",
".  c #4A3F2F",
"X  c #453D32",
"o  c #4C3F31",
"O  c #4D412E",
"+  c #54442E",
"@  c #5A4A2F",
"#  c #4D4234",
"$  c #4E453A",
"%  c #534534",
"&  c #5A4636",
"*  c #554935",
"=  c #5B4B36",
"-  c #524639",
";  c #554A3B",
":  c #5C4D3B",
">  c #5E5036",
",  c #5D513C",
"<  c #624E36",
"1  c #6B4F30",
"2  c #614E3A",
"3  c #694F3B",
"4  c #645236",
"5  c #6C5436",
"6  c #6E5937",
"7  c #64533C",
"8  c #6B553B",
"9  c #67583E",
"0  c #6D5A3C",
"q  c #725435",
"w  c #795736",
"e  c #755C36",
"r  c #7B5C36",
"t  c #72563B",
"y  c #735C3C",
"u  c #7B5D3C",
"i  c #7D6236",
"p  c #75613D",
"a  c #7D623C",
"s  c #7F683E",
"d  c #564D42",
"f  c #5A4E41",
"g  c #5D5242",
"h  c #5E5847",
"j  c #645442",
"k  c #6A5641",
"l  c #655944",
"z  c #6C5B43",
"x  c #665749",
"c  c #655A4A",
"v  c #6A5C4A",
"b  c #735D42",
"n  c #7A5E41",
"m  c #725E4A",
"M  c #6F6045",
"N  c #6D614B",
"B  c #756144",
"V  c #7C6343",
"C  c #7F6944",
"Z  c #74634A",
"A  c #7B654A",
"S  c #75684B",
"D  c #7D694B",
"F  c #6F6755",
"G  c #746653",
"H  c #756853",
"J  c #7C6B53",
"K  c #766659",
"L  c #7F7253",
"P  c #825E35",
"I  c #825F3B",
"U  c #846335",
"Y  c #8A6436",
"T  c #866837",
"R  c #8A6A36",
"E  c #84643C",
"W  c #8A653B",
"Q  c #85693C",
"!  c #8B6B3C",
"~  c #916637",
"^  c #936A36",
"/  c #92663C",
"(  c #926C3C",
")  c #9A6E3D",
"_  c #8D703D",
"`  c #947335",
"'  c #93723D",
"]  c #9B733E",
"[  c #805F45",
"{  c #836542",
"}  c #896642",
"|  c #846A43",
" . c #8B6B43",
".. c #826649",
"X. c #886749",
"o. c #846B4B",
"O. c #8B6C4A",
"+. c #946740",
"@. c #926D43",
"#. c #9A6F43",
"$. c #916F49",
"%. c #867047",
"&. c #8D7144",
"*. c #86714B",
"=. c #8B724B",
"-. c #8F794D",
";. c #937343",
":. c #9A7344",
">. c #957945",
",. c #9B7B44",
"<. c #93734A",
"1. c #9A7449",
"2. c #947A4B",
"3. c #9B7B4B",
"4. c #826C52",
"5. c #8B6E53",
"6. c #806D5A",
"7. c #867351",
"8. c #8C7553",
"9. c #8E7950",
"0. c #947551",
"q. c #957953",
"w. c #9D7B51",
"e. c #A07746",
"r. c #A37F45",
"t. c #A37B4A",
"y. c #9C814C",
"u. c #A38144",
"i. c #A2844F",
"p. c #A38550",
/* pixels */
"&.&.&.&.z X.#.) / W U P U w y ,.>. .! &.;.' &.p i -.*.&.| _ ' ' >.> } E u E U U T W E t _ ;.;.>.&.' _ ( B *.=.o.| _  ._  .&.V ' ",
"B B Z Z j k k t t < & = % & # j g : 7 g g J D j d ; ; 9 7 4 4 # , $ g 7 ; 8 # - : = : , b j k G v m 4.S f F J F N x 9 l 9 7 , 0 ",
"{ @.@.@.} I w I W & 3 { { { b b z u V 0 s %. .o.o.%.A | 0 0 Q p V | C Q E C - A A A A D A m ..J l O.9.=.*.9.7.o.=.M i } { w r u ",
"{ @.@./ Y W U I W < t @.W W W { } } } y T U T Q Q Q | Q 6 y &.! | Q ! R _ ! 7 | | } E } C V o.A 5 ` R !  . .&.*._ 0 E ! I I U U ",
"{ <.( ) W W P P W < u / W W { u { W E p U U E E Q  .| W e y ! E Q E Q R ! _ 8 | s s p V n V C b 4 _ ! ! Q %.&. ._ r U W U I P I ",
"C :.;.) / W U U / 1 b { } I E [ I E u 0 R T ! Q &.T W ! e 6 ! E s Q Q Q T } < | Q | a { a u ..A 7 ' ' ' &.2.;.@.&.y n X.W u [ I ",
": j 3 2 : % # % O # X % $ ; $ : 4 f - - 4 k k , d 7 : 2 ; - : : * % ; c l , d g , ; - - f $ ; - ; l 2 x j z x 7 z < & j j < ; j ",
"1.#.<.O.l y C E C | s V | B 3 ) / W X.} I  .@.B b / +._ !  .X.W  .y _ -.>.=.9.-.7.*.%.z  . .Q {  .{ { O.z ! +.;.!  .} {  . .k &.",
"O.X.@.<.9 i T Q i i p s Q p 5 / ~ ~ W W I / @.V y ) ) / / W } ! ( e _ R _ | _ &.%.%.s 6 Q T T E E { Q | 8 Q &.' W W  .E } | 4 ! ",
"X.X. .@.z s i i i i i p a 0 5 ^ I Y W I I W / n u ` ^ / ! W W ~ ! p ` _ _ _ %.&.>._ T e T U i E E w i | < ! ' / W T ! W { ! q W ",
"$.$. .o., p i i e e i e p y < W U W E E {  .O.b q Q Q I Q I E W Q = Q _ &.| 9.&.Q _ s 9 Q i T e E e u { : s Q ! T Q { { C { 8 W ",
"9 8 > * % * > = * X $ ; N ; d l d g g c m v v j : j 9 f & : 7 2 7 , k l k l , > c M 9 , 9 , , ; ; < 7 4 & 7 : 7 5 % , , : : > 4 ",
"s _ ! E Q y E Q _ 4 p Q Q | o.C D C p B w.@. .<.<.@.>.<.| B <.$.@.O.O...O.O.8 T Q Q | | Q *.| s 5 ( ( ^ T Q I W R 0 *.>.' ` ' _ ",
"p Q Q i p i i Q Q 7 e i a p p s C C y z @. .X. .W !  .' s V <.&. .{ { X.X.X.6 U T i a a Q C Q e 5 _ T ! i E r a Q y o._ ' R ! ! ",
"s T E E Q E Q T Q 0 p U Q E Q | | E i z &.| !  .! _ _ ' | V <.@./ }  . .O.O.y U T T T Q T ! T i 5 ' R ! U U W | ! t s ' ' ^ W Q ",
"z p 9 8 p 8 6 p e O 4 y p 0 S B 0 y 0 x | C p  .p V E ! t 7 B u a n z z x z & p e a p C p y y y @ e e r r t e 0 t > V  .%.A V V ",
"z 3 & k f - f 2 : f f f j f , b z t t k z u t j % 3 8 0 7 j 2 & 5 # > > @ + @ @ 4 0 4 & t 3 < 3 k m k n : * l N 7 N N c l l ; 8 ",
"} { } @.k ..X.X.{ X.X.V X...b #.#./  .#.) / ) I b ' ( ( /  .} ! ' 0 C _ R R ! T Q _ T 8 @. . . .&.:.w.w.B i T T %.C | | %.s 4 ' ",
"I u [ W 7 n E I u u n n n x 8 #./ W W  .W Y / P t ^ ~ W W E W W ! y T R T U i U U T Q 5 &.{ E }  .#.<.0.B r U i i s C { s i 4 T ",
"I P P [ 3 n E E E I n u ..m z :./ ! W / ^ ! ) P r ) / ~ W U W W ! 4 U R R T i E T ! U t @.} W @.#.:.3.w.B i U T s E Q Q E E 6 _ ",
"y 8 t b f 9 0 8 < 7 8 < k 2 ; 4...m z y t t y 7 & 8 8 8 8 0 t y t O B p B z 3 4 M p 7 * 0 0 z b b C { A ; 4 y z 0 Z B 0 t y = p ",
"z | E u t V V Q  .k j b b k k 8 b b l 7 t < 2 : 2 7 4 z % : S B B b ..b B D f t p y B 0 t y C B O 6 6 4 5 z V V V l L O.-.%.8.7.",
"a @.! I I Q W / ( V E  .}  .O.[  .O.X.z | { ..{ } W  . .8 0 _ ! T  .Q E |  .5 ! R ! !  .a  ._ o.< E i i i E ! &.&.b %.3.,.,.,.3.",
"{ ! ! W Q } W T  .t u { I } { n E X.A z W I { u E U W W 8 6 T U u i I u E s 4 ! E i T E a T ! | < i r y i E !  .O.y O.>.O.=.=.<.",
"E ( ( ! } @.W } ;.t V  .E } } { { O.D 2 } u E u n { { } 0 0 R T W T Q u E  .4 ! ! E W Q { Q  .%.4 Q i r Q T _ &.&.M *.3.,.3.y.y.",
". : 7 : & x : < 3 ; # ; - % $ ; j f d X & ; : % < & < & O % 4 4 * O 4 4 7 k : 9 7 8 7 > , z l ,   + % * & 9 4 0 9 ; l z D B z b ",
"u i { D l Z { @.} 5.o.D 4.z * E V t n V E a E y p _ Q s a 6 a Q p @ { / } o.X.u } X.{ y  .@.I P U W }  .l A  .] ' <.<.O.0.$.j p ",
"W W !  .b ..$. . .@.$.$.<.O.: | E u { i T _  .p p _ ! E Q i s ! _ 8 / / / +.+.I ) @. .u ) ( W / / ~ ~ ) b Q ] ' @.' ;.#.:.,.k Q ",
"Q ! ! W b |  .X...X. . .$.X.= Q V i E r E Q &.i p ! T Q E E ! ! ! 8 / ~ Y / } I W +.} u ) / / I ~ / ^ / z W (  . . .;./ ' >.8 E ",
"{  . .| k A @.&.$.$.<.$.<.4.7 { C { Q E T T T w p _ s E o.Q Q Q Q < / / I / } } @.$.O.V @.@.W W } / ( ( 8 | ] ' ] :.>.>.:.2.b E ",
": 9 7 8 $ : > 4 8 = ; , ; ; X # X % $ % 4 % - % > : : 2 > & 8 3 & % k k t k 7 x m x f o j 7 2 : - 7 k 8 - , 7 7 9 4 8 4 2 x d d ",
"y ! W r r E E R ^ 0 B *. .| O.o.o.O.4.7 { { n [ { E W } u t ) W W +.+.#.#.:.n X.{ I u X.} I W E 4  .| ! E C V V | 9  .! X.X.@.@.",
"p R U r r P U T ! 6 C  .| | | { | O...7 { u u I w U W W u t / ~ ~ / / #.#.#.n X.} I u X.I I U I 8  .Q Q i E p p | 8  .( @. .@.( ",
"i ~ Y T T E U U Y e C ! Q Q E { { | B 4 W n I I r I W  .u w / P Y / ) ] e.#.u X.E I I I I P I E 5 &.! T i E E C Q y  .! W W W ) ",
"5 r E r u T e r Q 8 B Q Q a C Q y { A < t n n u w I i a q 5 T I I / +.) #.<.z 4.X.V n I u u u u = p i i i p u b y > s ! W { } { ",
"; : < : ; $ h v 9 f g ; ; - $ 7 : : - # $ - O # , 9 h c c 7 M c j % 3 k k 4 : 7 v c f ; 3 < & & : 4 , 7 $ g ; $ d ; d 7 l l $ g ",
"-. .' ;.p s s Q C o.| D D p M &. .{ {  .! W @.u B %.7.o.%.o.%._ | t O.<. .}  .! @.&.D k @. .W  . .:.3.3.n 4.<.o.O.=.O. .O.=.z o.",
"! Q T _ p i i s V p C C s e 9 o.Q a u { E E Q y 6 Q | | s C s U T 8 &. .} } { W W  ...k W U Q W ! ;.<.<.k V o.{ ..{ C } |  .l Z ",
"! T Q _ p a a T s s Q | s i 9 o.E E a Q Q a T i p _ | %.| s Q E Q 0  . .} { { } ! ! C t  .U E } ( ;.:.3.k B  .E { } T } W &.z Z ",
"V V p V 9 9 p p M C B p B 6 l 7.A z z t t 0 y 7 4 p y p *.B C s V = ..4.D n A m 4.X.Z < p t y E | Q =.*.l m V m p A z V V V 2 A ",
"9 l , l N v Z Z M - , N S 0 N J N , , % l l z l z z 7 G G l | s A B b C D C c K 6.J 4.J V { A K , M L S M J S N B , 3 t 3 3 8 n ",
"%.>.&.%.&.@.;.;.>.9 i R T Q Q E | o.a M -.&.&.&.=.%.O.-.A E ] ] ' ;.! ! ] ;.A q.q.q.0.1.>.:.<.o.p R R _ &.Q | O.&.5 u W Q E } } ",
"D _ | o.| _ _ _ ' 9 r U U p E s Q Q e p &.Q Q Q | { | %.B r ' R R _ W ! ' &.b 0.@.<.&.O.4.O.O.o.6 T T T Q s  .Q T 5 e E w I I / ",
"s _ Q  .|  . .&.>.e r Y R T ! &.! T i p >.! &._ | Q C %.A i ' R ) ( ! _ ;.;.D q.0.<.<.<.<.#.>.O.p R R Q _ _ _ ;._ 6 i ! I W W @.",
"* 0 0 l 9 9 9 9 8 % < t 0 < 0 0 8 5 < # 9 9 9 > B 0 z V c 9 V B B 0 z B A B h Z B Z b A A A B v * 0 y 0 k b q 8 5 % < < 3 3 5 t ",
"l 8 8 8 * q r w 1 1 1 w y < % b y 3 8 8 0 e y : 0 o.J o.7.%.=.*.C 4 V A y 8 t t B V z v X.! / @.7.O.5.5.j 3 w t t t n X...{ l G ",
"| E E W q Y W W P P Y Y Y a z ! ! E a } Y Y ! r i ;.@.@.!  .^ ^ ^ y  .&.Q Q W W !  .C b #.] :.) e.1.1.t.t u +.I W W @.@.:.$.t -.",
"{ u u I 6 P Y P P P P Y Y I z } U w u E P r U w r (  .@.! W ! ~ ~ e ! Q } E V T ! T V n @./ X.X.+.@.) ,.b w W I Y W / #.@.$.z  .",
"E u { Q 8 W ~ W P I Y ~ W u 3  .E E I E P I ! w E ) ;.#.:.@.) ^ / y O. .} } {  .@. .V B e.] :.:.e.:.e.t.b E +.I W +.@.e.:.1.Z =.",
"& 2 & 2 % + < < = & 2 j & 3 $ v x f j : 7 : < & 4 8 3 t b k z z b d l N c f : 7 k j 3 : b B t n 0 z 0 8 % O + & < 3 < 4 8 z d j ",
"V &. . .{ u u a E = m 4.n ..4...A ..4.l { { E { X.[ n { b l A H D J Z X.D B = P U w r I W W ! Q 2 B n w w t t V V 8 p b z Z B C ",
"X.-.#._ E T E T W 4 {  .X.{ } ..{ O...t W Y W P I I U  .t 5 | A { { V E E T 5 P Y P U T ~ ( _  .m } E T Y E I W W t | Q { C E W ",
"{ 2.;.' ! W i u Q 5 { { { I { [ [ ..n t Y P P r P w r E l 6 E | { C a E u E 5 U P r U Y ^ ` (  .3 Q W W u w I E Q t p E E p a Q ",
"C 2.;.' ! ! E E ! 5 n W W { { E n ....8 W U W P W P w U u 8 E { { O.{ | Q E 5 U U P Y Y R ' #. .< { E } ..u u  . .4 p E r V V n ",
"k b B z 7 : , : & : - 2 : % d x x j x : 5 8 j j 8 M Z B v z v j M g : - : j ; , : 4 = 4 0 p p 0 f m m v f : f x 7 o , 7 l 7 % : ",
"r.r.,.3.B |  .&.| ....A  .u j 0.0.$.0.:.#.#.@.A Q >.,.>.9.,.2.-.>.p ! { | o. .! ;. .C Z u.u.u.u.p.i.w.p.D ..<.( / @.W  .#.:.y +.",
";.@.:.>.B s | &.E s V V { t 7 w.@.$.+.} } +. .n R ` ` &.' ' &.>._ 6 _ ! | | ! R _ ' a p ,.;.;.&.,.,.,.u.D | ) ( / ! / / @.( u @.",
"2.>.' ,.p | &.! E i Q | | V 8 @.@. . .X.X.} +.n _ ` ` ` ' >.] ' ` 6 Q Q T i Q ! R ' Q V ,.] >.' ,.,.,.u.C } ( ) ) W W @.( ;.u @.",
">.>.,.2.N e y a p u B b z z c O.=.O.=.#. .&. .m s ' ' >.>.y._ ;._ > i i i V C u E p y M y.y.,.y.y.,.>.y.G { @.$.{ X.E  .<.O.3 a ",
"Z S Z z g , : 4 4 $ : 4 @ 7 & < t t 9 d k 8 j f , 9 z N l h Z Z M N M p B z c z M 0 4 7 6 B C B > y t 8 < z n B B j x v v j - ; ",
"o.@.@.}  .@.@.@.:.t { @. .W u u U } { < ! W E { C n } | B B q.q.9.2.;.;.&.%.N -.>.' @.@. .@.>.;.4 T T I E T @.' @.V ..| A { | { ",
"{ <. .{ }  ./ W ( t u Q W E u I E W E 8 E u u V u t E { y M &.&.%.| C |  .| Z &.' ( / _ _ ! @.;.4 U U r E T !  .&.t m ..V n V u ",
"o.@.! W Q } W ! ( w I W I { } U W W E 8 E a r E u n u | b B 2.%.&.&.| &._  .b  .@.'  .! W @.;.;.6 ! r r T ! ' ' >.0 Z V u u E E ",
"J 8.5.....{ { p C 0 b V t n V n V n 8 4 B t b b b b J D x v *.=.*.*.*.=.%.D c =.<.=.o.4.{ =.7.O.@ e w y i E Q | O.0 B B z V b 4 "
};
